<svg width="45" height="45" viewBox="0 0 45 45" fill="none" xmlns="http://www.w3.org/2000/svg">
<g id="Group 1">
<g id="Group">
<path id="Vector" d="M19.7224 14.1357L30.0959 3.84753L40.7683 14.5199L30.4375 24.808L19.7224 14.1357Z" fill="#B68C5A"/>
<path id="Vector_2" d="M18.8687 12.4708C18.2283 13.1111 17.2038 13.1111 16.6061 12.4708L16.5208 12.3854C15.9231 11.7878 15.9658 10.934 16.4354 10.2509C18.954 6.28084 23.223 2.09729 26.4247 0.304336C27.1504 -0.0798678 27.9615 -0.165247 28.5591 0.432403L28.6872 0.560471C29.2849 1.15812 29.2849 2.18266 28.6872 2.78031L18.8687 12.4708Z" fill="#B68C5A"/>
<path id="Vector_3" d="M32.0597 25.7045C31.4193 26.3448 31.4193 27.3267 32.0597 27.967L32.145 28.0524C32.7427 28.65 33.5965 28.6073 34.2795 28.1804C38.2923 25.6618 42.5185 21.4355 44.3115 18.2338C44.6957 17.5081 44.7811 16.697 44.1834 16.0994L44.0553 15.9713C43.4577 15.3737 42.4332 15.331 41.7928 15.9713L32.0597 25.7045Z" fill="#B68C5A"/>
<path id="Vector_4" d="M1.23799 43.1644C1.02454 43.079 0.939164 42.8229 0.768407 42.6948C0.256135 42.0118 0 41.158 0 40.3042C0.0426893 39.237 0.469582 38.2551 1.28068 37.5294L22.1557 19.173L23.7779 20.7525L25.3574 22.3747L6.87297 43.1217C6.14726 43.8901 5.1654 44.3597 4.09817 44.4024C3.24439 44.4024 2.3906 44.1462 1.70757 43.634C1.53681 43.4632 1.32337 43.3778 1.23799 43.1644Z" fill="#B68C5A"/>
</g>
<path id="Vector_5" d="M19.2102 36.761L18.0149 38.127V39.5358H16.905L15.4109 41.0299V45H43.8846V41.0299L42.3478 39.5358H41.2379V38.127L40.0426 36.761H19.2102Z" fill="#B68C5A"/>
</g>
</svg>
